<mxfile host="app.diagrams.net" agent="Mozilla/5.0 (Macintosh; Intel Mac OS X 10_15_7) AppleWebKit/537.36 (KHTML, like Gecko) Chrome/126.0.0.0 Safari/537.36" version="24.7.6">
  <diagram name="第 1 页" id="zKaOo3_86Ybl7uVsoIq_">
    <mxGraphModel dx="1195" dy="634" grid="1" gridSize="10" guides="1" tooltips="1" connect="1" arrows="1" fold="1" page="1" pageScale="1" pageWidth="1169" pageHeight="827" math="0" shadow="0">
      <root>
        <mxCell id="0" />
        <mxCell id="1" parent="0" />
        <mxCell id="R0y6eJoZ3azUR7mP6Z2F-2" value="start" style="ellipse;whiteSpace=wrap;html=1;" vertex="1" parent="1">
          <mxGeometry x="280" y="90" width="120" height="80" as="geometry" />
        </mxCell>
        <mxCell id="R0y6eJoZ3azUR7mP6Z2F-3" value="end" style="ellipse;whiteSpace=wrap;html=1;" vertex="1" parent="1">
          <mxGeometry x="280" y="600" width="120" height="80" as="geometry" />
        </mxCell>
        <mxCell id="R0y6eJoZ3azUR7mP6Z2F-11" style="edgeStyle=orthogonalEdgeStyle;rounded=0;orthogonalLoop=1;jettySize=auto;html=1;entryX=0.5;entryY=0;entryDx=0;entryDy=0;" edge="1" parent="1" source="R0y6eJoZ3azUR7mP6Z2F-4" target="R0y6eJoZ3azUR7mP6Z2F-5">
          <mxGeometry relative="1" as="geometry" />
        </mxCell>
        <mxCell id="R0y6eJoZ3azUR7mP6Z2F-14" value="NO" style="edgeLabel;html=1;align=center;verticalAlign=middle;resizable=0;points=[];" vertex="1" connectable="0" parent="R0y6eJoZ3azUR7mP6Z2F-11">
          <mxGeometry x="0.0217" y="1" relative="1" as="geometry">
            <mxPoint as="offset" />
          </mxGeometry>
        </mxCell>
        <mxCell id="R0y6eJoZ3azUR7mP6Z2F-12" style="edgeStyle=orthogonalEdgeStyle;rounded=0;orthogonalLoop=1;jettySize=auto;html=1;entryX=0.5;entryY=0;entryDx=0;entryDy=0;" edge="1" parent="1" source="R0y6eJoZ3azUR7mP6Z2F-4" target="R0y6eJoZ3azUR7mP6Z2F-6">
          <mxGeometry relative="1" as="geometry" />
        </mxCell>
        <mxCell id="R0y6eJoZ3azUR7mP6Z2F-13" value="YES" style="edgeLabel;html=1;align=center;verticalAlign=middle;resizable=0;points=[];" vertex="1" connectable="0" parent="R0y6eJoZ3azUR7mP6Z2F-12">
          <mxGeometry x="-0.2473" y="4" relative="1" as="geometry">
            <mxPoint as="offset" />
          </mxGeometry>
        </mxCell>
        <mxCell id="R0y6eJoZ3azUR7mP6Z2F-4" value="RPA_PACK_DOCKER&lt;br&gt;( 默认true )" style="rhombus;whiteSpace=wrap;html=1;" vertex="1" parent="1">
          <mxGeometry x="245" y="200" width="190" height="120" as="geometry" />
        </mxCell>
        <mxCell id="R0y6eJoZ3azUR7mP6Z2F-5" value="buildByLocal" style="rounded=0;whiteSpace=wrap;html=1;" vertex="1" parent="1">
          <mxGeometry x="90" y="354" width="120" height="60" as="geometry" />
        </mxCell>
        <mxCell id="R0y6eJoZ3azUR7mP6Z2F-6" value="buildBydocker" style="rounded=0;whiteSpace=wrap;html=1;" vertex="1" parent="1">
          <mxGeometry x="470" y="330" width="120" height="60" as="geometry" />
        </mxCell>
        <mxCell id="R0y6eJoZ3azUR7mP6Z2F-15" style="edgeStyle=orthogonalEdgeStyle;rounded=0;orthogonalLoop=1;jettySize=auto;html=1;entryX=0.5;entryY=0;entryDx=0;entryDy=0;" edge="1" parent="1" source="R0y6eJoZ3azUR7mP6Z2F-7" target="R0y6eJoZ3azUR7mP6Z2F-3">
          <mxGeometry relative="1" as="geometry" />
        </mxCell>
        <mxCell id="R0y6eJoZ3azUR7mP6Z2F-7" value="yarn build-electron" style="rounded=0;whiteSpace=wrap;html=1;" vertex="1" parent="1">
          <mxGeometry x="280" y="490" width="120" height="60" as="geometry" />
        </mxCell>
      </root>
    </mxGraphModel>
  </diagram>
</mxfile>
